<svg xmlns="http://www.w3.org/2000/svg" xmlns:xlink="http://www.w3.org/1999/xlink" width="500" zoomAndPan="magnify" viewBox="0 0 375 374.999991" height="500" preserveAspectRatio="xMidYMid meet" version="1.0"><defs><g/><clipPath id="0d505dc551"><path d="M 54.085938 120.910156 L 187.585938 120.910156 L 187.585938 254.410156 L 54.085938 254.410156 Z M 54.085938 120.910156 " clip-rule="nonzero"/></clipPath><clipPath id="d8d91b533c"><path d="M 60.550781 160.679688 L 294.527344 160.679688 L 294.527344 214.679688 L 60.550781 214.679688 Z M 60.550781 160.679688 " clip-rule="nonzero"/></clipPath><clipPath id="3a8c5dc14f"><path d="M 26.886719 48.179688 L 315.636719 48.179688 L 315.636719 160.679688 L 26.886719 160.679688 Z M 26.886719 48.179688 " clip-rule="nonzero"/></clipPath><clipPath id="7c1384a6fd"><path d="M 50.933594 214.320312 L 303.683594 214.320312 L 303.683594 326.820312 L 50.933594 326.820312 Z M 50.933594 214.320312 " clip-rule="nonzero"/></clipPath><clipPath id="662e2124e7"><path d="M 32.898438 148.058594 L 60.648438 148.058594 L 60.648438 260.558594 L 32.898438 260.558594 Z M 32.898438 148.058594 " clip-rule="nonzero"/></clipPath></defs><g clip-path="url(#0d505dc551)"><path fill="#e69a8d" d="M 120.835938 120.910156 C 83.972656 120.910156 54.085938 150.796875 54.085938 187.660156 C 54.085938 224.527344 83.972656 254.410156 120.835938 254.410156 C 157.703125 254.410156 187.585938 224.527344 187.585938 187.660156 C 187.585938 150.796875 157.703125 120.910156 120.835938 120.910156 " fill-opacity="1" fill-rule="nonzero"/></g><g clip-path="url(#d8d91b533c)"><path stroke-linecap="butt" transform="matrix(0.750376, 0, 0, 0.75508, 60.552327, 160.678525)" fill="none" stroke-linejoin="miter" d="M -0.00205987 0.00153898 L 311.810485 0.00153898 L 311.810485 71.517169 L -0.00205987 71.517169 L -0.00205987 0.00153898 " stroke="#e69a8d" stroke-width="6" stroke-opacity="1" stroke-miterlimit="4"/></g><g clip-path="url(#3a8c5dc14f)"><path fill="#ffffff" d="M 26.886719 48.179688 L 315.636719 48.179688 L 315.636719 160.679688 L 26.886719 160.679688 L 26.886719 48.179688 " fill-opacity="1" fill-rule="nonzero"/></g><g fill="#ffffff" fill-opacity="1"><g transform="translate(65.364572, 197.368259)"><g><path d="M 9.410156 0.363281 C 13.707031 0.363281 16.488281 -1.742188 16.488281 -5.167969 C 16.488281 -8.0625 14.550781 -9.800781 9.523438 -11.039062 C 5.703125 -11.964844 4.4375 -12.976562 4.4375 -14.605469 C 4.4375 -16.488281 6.125 -17.667969 8.933594 -17.667969 C 11.824219 -17.667969 13.621094 -16.207031 13.679688 -13.847656 L 16.121094 -13.847656 C 16.09375 -17.667969 13.339844 -20.027344 8.933594 -20.027344 C 4.632812 -20.027344 1.910156 -17.917969 1.910156 -14.605469 C 1.910156 -11.570312 4.074219 -9.886719 8.902344 -8.734375 C 12.441406 -7.894531 13.929688 -6.910156 13.929688 -5.082031 C 13.929688 -3.144531 12.191406 -1.996094 9.410156 -1.996094 C 6.347656 -1.996094 4.214844 -3.511719 4.15625 -6.039062 L 1.683594 -6.039062 C 1.714844 -2.191406 4.71875 0.363281 9.410156 0.363281 Z M 9.410156 0.363281 "/></g></g></g><g fill="#ffffff" fill-opacity="1"><g transform="translate(85.665892, 197.368259)"><g><path d="M 7.613281 0 L 10.082031 0 L 10.082031 -17.300781 L 16.710938 -17.300781 L 16.710938 -19.660156 L 0.953125 -19.660156 L 0.953125 -17.300781 L 7.613281 -17.300781 Z M 7.613281 0 "/></g></g></g><g fill="#ffffff" fill-opacity="1"><g transform="translate(105.489878, 197.368259)"><g><path d="M 10.222656 0.335938 C 14.96875 0.335938 17.835938 -2.78125 17.835938 -8.003906 L 17.835938 -19.660156 L 15.363281 -19.660156 L 15.363281 -8.171875 C 15.363281 -4.15625 13.59375 -2.078125 10.222656 -2.078125 C 6.882812 -2.078125 5.082031 -4.15625 5.082031 -8.171875 L 5.082031 -19.660156 L 2.640625 -19.660156 L 2.640625 -8.003906 C 2.640625 -2.78125 5.476562 0.335938 10.222656 0.335938 Z M 10.222656 0.335938 "/></g></g></g><g fill="#ffffff" fill-opacity="1"><g transform="translate(128.0936, 197.368259)"><g><path d="M 2.863281 0 L 9.660156 0 C 15.699219 0 19.746094 -4.015625 19.746094 -9.832031 C 19.746094 -15.644531 15.699219 -19.660156 9.660156 -19.660156 L 2.863281 -19.660156 Z M 5.335938 -2.359375 L 5.335938 -17.300781 L 9.550781 -17.300781 C 14.128906 -17.300781 17.21875 -14.296875 17.21875 -9.832031 C 17.21875 -5.363281 14.15625 -2.359375 9.660156 -2.359375 Z M 5.335938 -2.359375 "/></g></g></g><g fill="#ffffff" fill-opacity="1"><g transform="translate(151.595821, 197.368259)"><g><path d="M 2.863281 0 L 5.335938 0 L 5.335938 -19.660156 L 2.863281 -19.660156 Z M 2.863281 0 "/></g></g></g><g fill="#ffffff" fill-opacity="1"><g transform="translate(161.929423, 197.368259)"><g><path d="M 11.796875 0.363281 C 17.78125 0.363281 21.992188 -3.847656 21.992188 -9.832031 C 21.992188 -15.8125 17.78125 -20.027344 11.796875 -20.027344 C 5.8125 -20.027344 1.628906 -15.8125 1.628906 -9.832031 C 1.628906 -3.847656 5.8125 0.363281 11.796875 0.363281 Z M 4.15625 -9.832031 C 4.15625 -14.410156 7.273438 -17.554688 11.796875 -17.554688 C 16.320312 -17.554688 19.4375 -14.410156 19.4375 -9.832031 C 19.4375 -5.253906 16.320312 -2.105469 11.796875 -2.105469 C 7.273438 -2.105469 4.15625 -5.253906 4.15625 -9.832031 Z M 4.15625 -9.832031 "/></g></g></g><g fill="#e69a8d" fill-opacity="1"><g transform="translate(190.625894, 197.999987)"><g><path d="M 2.21875 0 L 12.988281 0 C 17.25 0 20.21875 -2.398438 20.21875 -5.851562 C 20.21875 -8.070312 19.019531 -9.871094 17.039062 -10.738281 C 18.660156 -11.671875 19.589844 -13.351562 19.589844 -15.359375 C 19.589844 -18.808594 16.828125 -21 12.449219 -21 L 2.21875 -21 Z M 8.160156 -4.5 L 8.160156 -8.429688 L 11.820312 -8.429688 C 13.261719 -8.429688 14.070312 -7.710938 14.070312 -6.480469 C 14.070312 -5.21875 13.261719 -4.5 11.820312 -4.5 Z M 8.160156 -12.75 L 8.160156 -16.53125 L 11.308594 -16.53125 C 12.71875 -16.53125 13.5 -15.839844 13.5 -14.640625 C 13.5 -13.410156 12.71875 -12.75 11.308594 -12.75 Z M 8.160156 -12.75 "/></g></g></g><g fill="#e69a8d" fill-opacity="1"><g transform="translate(211.715878, 197.999987)"><g><path d="M 12.449219 0.449219 C 19.140625 0.449219 23.878906 -4.078125 23.878906 -10.5 C 23.878906 -16.921875 19.140625 -21.449219 12.449219 -21.449219 C 5.761719 -21.449219 1.019531 -16.921875 1.019531 -10.5 C 1.019531 -4.078125 5.761719 0.449219 12.449219 0.449219 Z M 7.171875 -10.5 C 7.171875 -13.648438 9.359375 -15.839844 12.449219 -15.839844 C 15.570312 -15.839844 17.730469 -13.648438 17.730469 -10.5 C 17.730469 -7.351562 15.570312 -5.160156 12.449219 -5.160156 C 9.359375 -5.160156 7.171875 -7.351562 7.171875 -10.5 Z M 7.171875 -10.5 "/></g></g></g><g fill="#e69a8d" fill-opacity="1"><g transform="translate(236.645858, 197.999987)"><g><path d="M 12.449219 0.449219 C 19.140625 0.449219 23.878906 -4.078125 23.878906 -10.5 C 23.878906 -16.921875 19.140625 -21.449219 12.449219 -21.449219 C 5.761719 -21.449219 1.019531 -16.921875 1.019531 -10.5 C 1.019531 -4.078125 5.761719 0.449219 12.449219 0.449219 Z M 7.171875 -10.5 C 7.171875 -13.648438 9.359375 -15.839844 12.449219 -15.839844 C 15.570312 -15.839844 17.730469 -13.648438 17.730469 -10.5 C 17.730469 -7.351562 15.570312 -5.160156 12.449219 -5.160156 C 9.359375 -5.160156 7.171875 -7.351562 7.171875 -10.5 Z M 7.171875 -10.5 "/></g></g></g><g fill="#e69a8d" fill-opacity="1"><g transform="translate(261.575837, 197.999987)"><g><path d="M 2.21875 0 L 8.28125 0 L 8.28125 -7.949219 L 10.921875 -7.949219 L 14.941406 0 L 21.960938 0 L 16.441406 -10.199219 C 17.070312 -10.949219 17.640625 -11.941406 18.121094 -13.171875 L 21.238281 -21 L 14.671875 -21 L 12.78125 -15.75 C 12.148438 -13.921875 11.460938 -13.46875 9.300781 -13.46875 L 8.28125 -13.46875 L 8.28125 -21 L 2.21875 -21 Z M 2.21875 0 "/></g></g></g><g clip-path="url(#7c1384a6fd)"><path fill="#ffffff" d="M 50.933594 214.324219 L 303.683594 214.324219 L 303.683594 326.820312 L 50.933594 326.820312 L 50.933594 214.324219 " fill-opacity="1" fill-rule="nonzero"/></g><g clip-path="url(#662e2124e7)"><path fill="#ffffff" d="M 32.898438 148.074219 L 60.648438 148.074219 L 60.648438 260.542969 L 32.898438 260.542969 L 32.898438 148.074219 " fill-opacity="1" fill-rule="nonzero"/></g></svg>